# xmcd
#
# Track frame offsets: 
#        150
#        15290
#        32347
#        51080
#        69367
#        88555
#        108645
#        122975
#        140805
#        158597
#        174245
#        188370
#
# Disc length: 2732 seconds
#
# Revision: 5
# Processed by: cddbd v1.5.1PL0 Copyright (c) Steve Scherf et al.
# Submitted via: ExactAudioCopy v0.95a5
#
DISCID=8d0aaa0c
DTITLE=Uncle Kracker - No Stranger to Shame [Clean]
DYEAR=2002
DGENRE=Rock
TTITLE0=Keep It Comin'
TTITLE1=Thunderhead Hawkins
TTITLE2=In A Little While
TTITLE3=I Wish I Had A Dollar
TTITLE4=Drift Away
TTITLE5=Baby Don't Cry
TTITLE6=I Do
TTITLE7=Memphis Soul Song
TTITLE8=I Don't Know
TTITLE9=To Think I Used To Love You
TTITLE10=Letter To My Daughters
TTITLE11=No Stranger To Shame
EXTD=
EXTT0=
EXTT1=
EXTT2=
EXTT3=
EXTT4=
EXTT5=
EXTT6=
EXTT7=
EXTT8=
EXTT9=
EXTT10=
EXTT11=
PLAYORDER=
